<?xml version="1.0" standalone="no"?>
<!DOCTYPE svg PUBLIC "-//W3C//DTD SVG 20010904//EN"
 "http://www.w3.org/TR/2001/REC-SVG-20010904/DTD/svg10.dtd">
<svg version="1.0" xmlns="http://www.w3.org/2000/svg"
 width="512.000000pt" height="512.000000pt" viewBox="0 0 512.000000 512.000000"
 preserveAspectRatio="xMidYMid meet">
<metadata>
Created by potrace 1.14, written by Peter Selinger 2001-2017
</metadata>
<g transform="translate(0.000000,512.000000) scale(0.100000,-0.100000)"
fill="#000000" stroke="none">
<path d="M789 5115 c-3 -2 -22 -6 -42 -9 -46 -6 -131 -30 -183 -53 -21 -9 -41
-17 -44 -18 -3 0 -16 -7 -30 -15 -14 -8 -27 -15 -30 -15 -3 0 -34 -20 -70 -45
-167 -113 -291 -286 -357 -497 l-28 -88 0 -1805 c0 -1688 1 -1809 18 -1873 85
-334 329 -582 659 -670 l83 -22 1785 0 c982 0 1801 3 1820 6 98 18 135 31 254
89 231 112 400 322 468 580 l23 85 0 1785 c0 982 -4 1805 -8 1828 -66 350
-327 626 -677 716 l-95 25 -1771 0 c-974 1 -1773 -1 -1775 -4z"/>
</g>
</svg>
